HIERARCHY
ROOT root
{
	OFFSET 0.000000 0.000000 0.000000
	CHANNELS 6 Xposition Yposition Zposition Zrotation Yrotation Xrotation
	JOINT lhip
	{
		OFFSET 0.058581 -0.082280 -0.017664
		CHANNELS 3 Zrotation Yrotation Xrotation
		JOINT lknee
		{
			OFFSET 0.043451 -0.386469 0.008037
			CHANNELS 3 Zrotation Yrotation Xrotation
			JOINT lankle
			{
				OFFSET -0.014790 -0.426874 -0.037428
				CHANNELS 3 Zrotation Yrotation Xrotation
				JOINT ltoe
				{
					OFFSET 0.041054 -0.060286 0.122042
					CHANNELS 3 Zrotation Yrotation Xrotation
					End Site
					{
						OFFSET 0.000000 0.000000 0.000000
					}
				}
			}
		}
	}
	JOINT rhip
	{
		OFFSET -0.060310 -0.090513 -0.013543
		CHANNELS 3 Zrotation Yrotation Xrotation
		JOINT rknee
		{
			OFFSET -0.043257 -0.383688 -0.004843
			CHANNELS 3 Zrotation Yrotation Xrotation
			JOINT rankle
			{
				OFFSET 0.019056 -0.420046 -0.034562
				CHANNELS 3 Zrotation Yrotation Xrotation
				JOINT rtoe
				{
					OFFSET -0.034840 -0.062106 0.130323
					CHANNELS 3 Zrotation Yrotation Xrotation
					End Site
					{
						OFFSET 0.000000 0.000000 0.000000
					}
				}
			}
		}
	}
	JOINT lowerback
	{
		OFFSET 0.004439 0.124404 -0.038385
		CHANNELS 3 Zrotation Yrotation Xrotation
		JOINT upperback
		{
			OFFSET 0.004488 0.137956 0.026820
			CHANNELS 3 Zrotation Yrotation Xrotation
			JOINT chest
			{
				OFFSET -0.002265 0.056032 0.002855
				CHANNELS 3 Zrotation Yrotation Xrotation
				JOINT lowerneck
				{
					OFFSET -0.013390 0.211636 -0.033468
					CHANNELS 3 Zrotation Yrotation Xrotation
					JOINT upperneck
					{
						OFFSET 0.010113 0.088937 0.050410
						CHANNELS 3 Zrotation Yrotation Xrotation
						End Site
						{
							OFFSET 0.000000 0.000000 0.000000
						}
					}
				}
				JOINT lclavicle
				{
					OFFSET 0.071702 0.114000 -0.018898
					CHANNELS 3 Zrotation Yrotation Xrotation
					JOINT lshoulder
					{
						OFFSET 0.122921 0.045205 -0.019046
						CHANNELS 3 Zrotation Yrotation Xrotation
						JOINT lelbow
						{
							OFFSET 0.255332 -0.015649 -0.022946
							CHANNELS 3 Zrotation Yrotation Xrotation
							JOINT lwrist
							{
								OFFSET 0.265709 0.012698 -0.007375
								CHANNELS 3 Zrotation Yrotation Xrotation
								End Site
								{
									OFFSET 0.000000 0.000000 0.000000
								}
							}
						}
					}
				}
				JOINT rclavicle
				{
					OFFSET -0.082954 0.112472 -0.023707
					CHANNELS 3 Zrotation Yrotation Xrotation
					JOINT rshoulder
					{
						OFFSET -0.113228 0.046853 -0.008472
						CHANNELS 3 Zrotation Yrotation Xrotation
						JOINT relbow
						{
							OFFSET -0.260127 -0.014369 -0.031269
							CHANNELS 3 Zrotation Yrotation Xrotation
							JOINT rwrist
							{
								OFFSET -0.269108 0.006794 -0.006027
								CHANNELS 3 Zrotation Yrotation Xrotation
								End Site
								{
									OFFSET 0.000000 0.000000 0.000000
								}
							}
						}
					}
				}
			}
		}
	}
}
MOTION
Frames: 10
Frame Time: 0.033333
0.011420 0.227059 1.014567 91.747092 -1.943546 84.687625 5.115860 1.417184 6.248659 -4.050994 -4.744752 1.784703 -2.570781 15.096189 -2.905815 0.000000 -0.000000 0.000000 -3.813022 -4.827034 3.251851 1.859118 0.133206 6.861860 4.081997 -11.189552 -5.657494 0.000000 -0.000000 0.000000 0.569576 0.785866 9.633510 -0.681462 -0.535777 3.263749 0.768381 -0.414868 1.173992 -4.799823 -1.449032 0.825388 3.341090 5.672855 8.836162 -17.889039 4.265016 9.629134 -43.544617 12.690077 22.241197 -60.695113 -72.005939 64.035221 15.656155 0.684124 -50.592397 15.207726 2.767623 5.041987 46.302992 -8.033817 25.524437 35.404737 64.444742 40.771056 6.429741 -1.799601 -28.557598 
0.011307 0.226849 1.014979 91.774633 -1.864960 84.641518 5.220012 1.439372 6.283346 -3.998510 -4.521419 1.780968 -2.744835 14.802443 -2.808191 0.000000 -0.000000 0.000000 -3.698046 -5.042348 3.501691 1.719928 -0.141251 6.502567 4.309455 -10.855873 -5.524678 0.000000 -0.000000 0.000000 0.620223 0.809882 9.858953 -0.565200 -0.663110 3.464297 0.736750 -0.216182 0.795381 -5.005740 -1.098625 0.223287 3.199768 5.371775 8.062618 -18.385276 4.055530 9.345390 -43.563592 12.089499 21.462903 -55.196950 -71.802753 59.359172 14.044605 -1.380612 -48.387777 15.810975 2.512529 5.131604 46.309739 -7.647239 24.066547 30.897037 63.604463 37.232265 7.699130 -1.530391 -24.356984 
0.011188 0.226040 1.016056 91.761153 -1.812595 84.513085 5.211219 1.504004 6.450563 -3.800785 -4.211237 1.807068 -2.790071 14.288396 -2.856675 0.000000 -0.000000 0.000000 -3.614808 -5.240012 3.782585 1.556598 -0.549810 6.280605 4.299950 -10.346420 -5.369634 0.000000 -0.000000 0.000000 0.665609 0.871850 9.908275 -0.546954 -0.718495 3.740896 0.691429 0.123511 0.509969 -5.144261 -0.459017 -0.167311 2.905556 4.979482 6.808278 -18.794693 3.438155 8.816884 -44.372064 10.734535 20.211539 -45.768221 -70.997230 51.358385 12.287665 -2.084379 -45.758341 16.361218 2.790300 5.525496 47.077021 -6.390804 22.196851 23.027371 61.531040 30.737673 6.420459 -2.146471 -19.849412 
0.010523 0.224791 1.016635 91.861158 -1.849385 84.332514 5.228285 1.740877 6.593269 -3.699190 -3.844533 1.812170 -2.874926 13.355267 -2.725801 0.000000 -0.000000 0.000000 -3.662639 -5.517954 3.775153 1.418116 -1.024420 6.668536 4.188401 -9.707096 -5.469965 0.000000 -0.000000 0.000000 0.732234 0.913822 9.911245 -0.686990 -0.728984 3.760761 0.392691 0.476396 0.296358 -4.739954 0.490823 -0.814470 2.384661 4.598805 6.252986 -19.417090 1.778642 8.100813 -45.936009 7.165165 18.538654 -30.359829 -67.357481 37.178884 13.068235 -3.339229 -44.423063 17.127167 4.127202 5.673433 48.323923 -2.362426 20.157638 12.413561 56.707713 21.966232 1.500597 -3.088398 -14.587552 
0.009470 0.223940 1.016782 92.088364 -1.841151 84.249597 5.214984 1.760197 6.506387 -3.597296 -3.585613 1.926974 -2.851401 12.778999 -2.679887 0.000000 -0.000000 0.000000 -3.652933 -5.628046 3.654727 1.330878 -1.455813 7.006880 4.024726 -9.363279 -5.553062 0.000000 -0.000000 0.000000 0.862292 0.859659 9.913979 -0.871771 -0.800651 3.690866 0.202264 0.673004 0.104131 -4.377788 0.711428 -0.982398 2.075632 4.638826 5.832882 -20.083194 0.360751 7.359457 -46.741575 4.528527 17.682372 -21.209833 -65.311123 27.622509 13.306240 -3.490796 -44.393190 17.568500 5.491361 5.298546 48.627551 0.989217 19.282080 7.240753 53.602952 17.254234 -0.630283 -3.722028 -12.089174 
0.007308 0.222284 1.016805 92.471490 -1.855919 84.185981 5.252655 1.480946 6.235577 -3.608722 -3.286092 2.125673 -2.824640 12.187729 -2.506543 0.000000 -0.000000 0.000000 -3.618048 -5.702879 3.448542 1.243902 -1.978709 7.371852 3.806307 -8.955741 -5.673438 0.000000 -0.000000 0.000000 0.925958 0.844857 9.885498 -1.111073 -0.817883 3.328516 -0.094492 1.015641 0.049076 -3.814176 1.003221 -1.666189 2.002566 3.972590 6.019137 -20.669478 -1.828070 5.899942 -47.671937 0.300270 17.147156 -11.687733 -62.222026 15.913894 14.599411 -2.708602 -47.877436 18.349792 7.728808 4.578446 48.450456 6.314466 18.845010 1.177272 49.775503 11.366150 -4.833446 -4.161907 -8.465509 
0.004504 0.220655 1.016834 93.171687 -1.938382 84.081089 5.209568 1.106366 5.872550 -3.595347 -2.799298 2.344916 -2.839827 11.312646 -2.280445 0.000000 -0.000000 0.000000 -3.789378 -5.962647 3.256718 1.289280 -2.734143 7.778380 3.698859 -8.384998 -5.731732 0.000000 -0.000000 0.000000 0.973886 0.945957 9.826671 -1.353860 -0.843491 3.033855 -0.415256 1.465355 -0.013440 -3.388780 0.986519 -2.688363 2.100057 2.571365 6.962229 -21.138005 -4.423933 4.062799 -48.251521 -4.928212 16.273462 -2.935238 -59.255990 5.082783 15.793854 -2.970384 -48.733677 19.022558 10.326847 3.773840 47.214566 12.278671 17.830645 -3.302281 46.611412 8.176323 -6.328143 -3.488882 -3.647971 
0.000974 0.218647 1.017249 93.617126 -1.993089 83.950008 5.174100 0.785139 5.488317 -3.483219 -2.273529 2.686545 -2.877730 10.697918 -2.181152 0.000000 -0.000000 0.000000 -3.885897 -6.205495 3.031397 1.340466 -3.297036 8.129023 3.524603 -7.863005 -5.721607 0.000000 -0.000000 0.000000 1.177864 1.058611 9.979191 -1.843747 -0.541785 2.655539 -0.702793 2.094028 -0.147091 -3.167655 0.231044 -3.782019 2.303646 1.412556 7.881037 -21.301166 -7.245631 2.055575 -48.712131 -10.248969 15.189499 6.183720 -56.769477 -6.671445 17.021453 -2.181140 -50.782284 19.096292 13.756677 3.073472 45.210416 18.256216 16.579935 -6.786788 44.033718 5.172861 -7.316533 -2.625646 -0.428881 
-0.002672 0.216843 1.017730 94.136473 -2.077241 83.871352 5.116513 0.042093 4.781419 -3.488256 -1.793389 3.403905 -2.869966 10.356699 -1.914821 0.000000 -0.000000 0.000000 -4.006616 -6.549604 2.741052 1.404754 -3.740478 8.480328 3.319431 -7.406569 -5.653894 0.000000 -0.000000 0.000000 1.391612 1.307539 10.196684 -2.445301 -0.383743 2.419979 -0.835792 2.712577 -0.333694 -3.557191 -1.422888 -4.602248 2.906629 0.197401 8.150254 -20.826125 -10.684025 0.232959 -49.290013 -15.043320 14.438113 15.779082 -54.669739 -22.439675 20.020152 0.300510 -56.508789 18.334162 17.802368 2.454312 42.254893 23.820609 15.311254 -9.861688 42.483035 2.301919 -9.252590 -1.538039 4.603393 
-0.006801 0.214349 1.018554 94.663833 -2.083502 83.625081 5.284041 -0.650841 3.657566 -3.593090 -1.189560 5.134804 -2.993009 10.026887 -1.883101 0.000000 -0.000000 0.000000 -4.001677 -6.810288 2.509256 1.484026 -4.338006 8.916371 3.100512 -6.882015 -5.689898 0.000000 -0.000000 0.000000 1.756204 1.534155 11.095954 -3.287661 -0.016691 1.850435 -1.019733 3.457986 -0.649928 -3.739625 -3.402611 -5.799716 3.428752 -0.933247 8.720518 -19.886233 -14.725318 -1.681040 -48.824658 -20.144566 13.331165 29.232384 -53.577660 -39.351350 23.576140 2.188181 -58.812256 16.142065 22.949154 1.271155 38.042524 29.616121 12.735174 -13.144258 41.730764 -0.689364 -10.751214 0.350511 8.652566 
